<svg xmlns="http://www.w3.org/2000/svg" width="800" height="450" viewBox="0 0 800 450">
  <defs>
    <linearGradient id="bgBff" x1="0%" y1="0%" x2="100%" y2="100%">
      <stop offset="0%" style="stop-color:#0e0820;stop-opacity:1" />
      <stop offset="100%" style="stop-color:#0f172a;stop-opacity:1" />
    </linearGradient>
    <linearGradient id="voiceWave" x1="0%" y1="0%" x2="100%" y2="0%">
      <stop offset="0%" style="stop-color:#e879f9;stop-opacity:1" />
      <stop offset="100%" style="stop-color:#a855f7;stop-opacity:1" />
    </linearGradient>
    <linearGradient id="cardGrad" x1="0%" y1="0%" x2="0%" y2="100%">
      <stop offset="0%" style="stop-color:#1e1033;stop-opacity:1" />
      <stop offset="100%" style="stop-color:#120a24;stop-opacity:1" />
    </linearGradient>
  </defs>

  <!-- Background -->
  <rect width="800" height="450" fill="url(#bgBff)"/>

  <!-- Subtle radial glow -->
  <circle cx="400" cy="200" r="260" fill="#a855f7" opacity="0.05"/>
  <circle cx="400" cy="200" r="140" fill="#e879f9" opacity="0.04"/>

  <!-- Grid lines -->
  <line x1="0" y1="150" x2="800" y2="150" stroke="#a855f7" stroke-width="0.3" opacity="0.12"/>
  <line x1="0" y1="300" x2="800" y2="300" stroke="#a855f7" stroke-width="0.3" opacity="0.12"/>
  <line x1="200" y1="0" x2="200" y2="450" stroke="#a855f7" stroke-width="0.3" opacity="0.12"/>
  <line x1="400" y1="0" x2="400" y2="450" stroke="#a855f7" stroke-width="0.3" opacity="0.12"/>
  <line x1="600" y1="0" x2="600" y2="450" stroke="#a855f7" stroke-width="0.3" opacity="0.12"/>

  <!-- ── Phone mockup (left) ── -->
  <rect x="55" y="48" width="162" height="320" rx="22" fill="#0f172a" stroke="#a855f7" stroke-width="2"/>
  <rect x="64" y="64" width="144" height="290" rx="10" fill="#111827"/>
  <!-- Notch -->
  <rect x="112" y="54" width="50" height="13" rx="6" fill="#1e293b"/>

  <!-- App header -->
  <rect x="64" y="64" width="144" height="38" rx="10" fill="url(#cardGrad)"/>
  <rect x="64" y="90" width="144" height="12" rx="0" fill="url(#cardGrad)"/>
  <text x="136" y="87" font-family="system-ui, sans-serif" font-size="13" font-weight="800" fill="#e879f9" text-anchor="middle">BFF</text>

  <!-- Avatar cards -->
  <rect x="72" y="110" width="128" height="76" rx="10" fill="url(#cardGrad)" stroke="#a855f7" stroke-width="1"/>
  <!-- Avatar circle -->
  <circle cx="108" cy="148" r="22" fill="#2d1654"/>
  <text x="108" y="155" font-family="system-ui, sans-serif" font-size="18" text-anchor="middle">👤</text>
  <rect x="138" y="136" width="52" height="6" rx="3" fill="#c084fc" opacity="0.7"/>
  <rect x="138" y="147" width="38" height="5" rx="2" fill="#6b7280"/>
  <!-- Voice wave bars on card -->
  <rect x="138" y="158" width="4" height="12" rx="2" fill="#e879f9" opacity="0.9"/>
  <rect x="145" y="153" width="4" height="22" rx="2" fill="#e879f9" opacity="0.7"/>
  <rect x="152" y="157" width="4" height="14" rx="2" fill="#e879f9" opacity="0.9"/>
  <rect x="159" y="155" width="4" height="18" rx="2" fill="#e879f9" opacity="0.6"/>
  <rect x="166" y="159" width="4" height="10" rx="2" fill="#e879f9" opacity="0.8"/>
  <rect x="173" y="154" width="4" height="20" rx="2" fill="#e879f9" opacity="0.5"/>
  <rect x="180" y="157" width="4" height="15" rx="2" fill="#e879f9" opacity="0.7"/>

  <!-- Second card -->
  <rect x="72" y="194" width="128" height="60" rx="10" fill="url(#cardGrad)"/>
  <circle cx="108" cy="224" r="18" fill="#2d1654"/>
  <text x="108" y="230" font-family="system-ui, sans-serif" font-size="14" text-anchor="middle">👤</text>
  <rect x="134" y="214" width="48" height="5" rx="2" fill="#a78bfa" opacity="0.6"/>
  <rect x="134" y="224" width="32" height="4" rx="2" fill="#6b7280"/>
  <rect x="134" y="236" width="55" height="5" rx="2" fill="#374151"/>

  <!-- Third card -->
  <rect x="72" y="262" width="128" height="60" rx="10" fill="url(#cardGrad)"/>
  <circle cx="108" cy="292" r="18" fill="#2d1654"/>
  <text x="108" y="298" font-family="system-ui, sans-serif" font-size="14" text-anchor="middle">👤</text>
  <rect x="134" y="282" width="52" height="5" rx="2" fill="#c084fc" opacity="0.6"/>
  <rect x="134" y="292" width="36" height="4" rx="2" fill="#6b7280"/>
  <rect x="134" y="304" width="48" height="5" rx="2" fill="#374151"/>

  <!-- Connect button -->
  <rect x="72" y="330" width="128" height="16" rx="8" fill="#7c3aed"/>
  <text x="136" y="342" font-family="system-ui, sans-serif" font-size="8" font-weight="700" fill="white" text-anchor="middle">Start Voice Chat</text>

  <text x="136" y="386" font-family="system-ui, sans-serif" font-size="10" font-weight="700" fill="#c084fc" text-anchor="middle">Discover People</text>

  <!-- ── Live voice call screen (center) ── -->
  <rect x="280" y="48" width="240" height="320" rx="22" fill="#0f172a" stroke="#e879f9" stroke-width="2"/>
  <rect x="289" y="64" width="222" height="290" rx="10" fill="#111827"/>
  <!-- Notch -->
  <rect x="375" y="54" width="50" height="13" rx="6" fill="#1e293b"/>

  <!-- Call header -->
  <rect x="289" y="64" width="222" height="38" rx="10" fill="url(#cardGrad)"/>
  <rect x="289" y="90" width="222" height="12" rx="0" fill="url(#cardGrad)"/>
  <text x="400" y="87" font-family="system-ui, sans-serif" font-size="10" fill="#94a3b8" text-anchor="middle">Live Voice Chat</text>

  <!-- Caller 1 -->
  <circle cx="350" cy="155" r="40" fill="#2d1654" stroke="#e879f9" stroke-width="2"/>
  <circle cx="350" cy="155" r="50" fill="none" stroke="#e879f9" stroke-width="1" opacity="0.2"/>
  <circle cx="350" cy="155" r="58" fill="none" stroke="#e879f9" stroke-width="0.5" opacity="0.1"/>
  <text x="350" y="163" font-family="system-ui, sans-serif" font-size="28" text-anchor="middle">👤</text>

  <!-- Caller 2 -->
  <circle cx="450" cy="155" r="40" fill="#1a0a3d" stroke="#a855f7" stroke-width="2"/>
  <circle cx="450" cy="155" r="50" fill="none" stroke="#a855f7" stroke-width="1" opacity="0.2"/>
  <text x="450" y="163" font-family="system-ui, sans-serif" font-size="28" text-anchor="middle">👤</text>

  <!-- Voice waveform between them -->
  <rect x="302" y="200" width="5" height="18" rx="2" fill="url(#voiceWave)" opacity="0.6"/>
  <rect x="311" y="194" width="5" height="30" rx="2" fill="url(#voiceWave)" opacity="0.9"/>
  <rect x="320" y="200" width="5" height="18" rx="2" fill="url(#voiceWave)" opacity="0.7"/>
  <rect x="329" y="196" width="5" height="26" rx="2" fill="url(#voiceWave)" opacity="0.8"/>
  <rect x="338" y="202" width="5" height="14" rx="2" fill="url(#voiceWave)" opacity="0.5"/>
  <rect x="347" y="193" width="5" height="32" rx="2" fill="url(#voiceWave)" opacity="1"/>
  <rect x="356" y="199" width="5" height="20" rx="2" fill="url(#voiceWave)" opacity="0.7"/>
  <rect x="365" y="197" width="5" height="24" rx="2" fill="url(#voiceWave)" opacity="0.8"/>
  <rect x="374" y="201" width="5" height="16" rx="2" fill="url(#voiceWave)" opacity="0.6"/>
  <rect x="383" y="194" width="5" height="30" rx="2" fill="url(#voiceWave)" opacity="0.9"/>
  <rect x="392" y="200" width="5" height="18" rx="2" fill="url(#voiceWave)" opacity="0.6"/>
  <rect x="401" y="196" width="5" height="26" rx="2" fill="url(#voiceWave)" opacity="0.8"/>
  <rect x="410" y="202" width="5" height="14" rx="2" fill="url(#voiceWave)" opacity="0.5"/>
  <rect x="419" y="193" width="5" height="32" rx="2" fill="url(#voiceWave)" opacity="1"/>
  <rect x="428" y="199" width="5" height="20" rx="2" fill="url(#voiceWave)" opacity="0.7"/>
  <rect x="437" y="196" width="5" height="24" rx="2" fill="url(#voiceWave)" opacity="0.8"/>
  <rect x="446" y="203" width="5" height="12" rx="2" fill="url(#voiceWave)" opacity="0.5"/>
  <rect x="455" y="195" width="5" height="28" rx="2" fill="url(#voiceWave)" opacity="0.9"/>
  <rect x="464" y="200" width="5" height="18" rx="2" fill="url(#voiceWave)" opacity="0.6"/>
  <rect x="473" y="198" width="5" height="22" rx="2" fill="url(#voiceWave)" opacity="0.7"/>
  <rect x="482" y="201" width="5" height="16" rx="2" fill="url(#voiceWave)" opacity="0.6"/>
  <rect x="491" y="194" width="5" height="30" rx="2" fill="url(#voiceWave)" opacity="0.8"/>
  <rect x="500" y="200" width="5" height="18" rx="2" fill="url(#voiceWave)" opacity="0.6"/>

  <!-- Call timer -->
  <text x="400" y="248" font-family="system-ui, sans-serif" font-size="10" fill="#94a3b8" text-anchor="middle">04:23</text>

  <!-- Call controls -->
  <circle cx="360" cy="300" r="20" fill="#1e1b4b"/>
  <text x="360" y="308" font-family="system-ui, sans-serif" font-size="16" text-anchor="middle">🎤</text>
  <circle cx="400" cy="300" r="20" fill="#dc2626"/>
  <text x="400" y="308" font-family="system-ui, sans-serif" font-size="16" text-anchor="middle">📵</text>
  <circle cx="440" cy="300" r="20" fill="#1e1b4b"/>
  <text x="440" y="308" font-family="system-ui, sans-serif" font-size="16" text-anchor="middle">🔈</text>

  <text x="400" y="386" font-family="system-ui, sans-serif" font-size="10" font-weight="700" fill="#e879f9" text-anchor="middle">Live Voice Call</text>

  <!-- ── Stats + safety panel (right) ── -->
  <rect x="580" y="48" width="168" height="320" rx="14" fill="#0f172a" stroke="#a855f7" stroke-width="1.5"/>
  <rect x="580" y="48" width="168" height="38" rx="14" fill="#1e1033"/>
  <rect x="580" y="74" width="168" height="12" rx="0" fill="#1e1033"/>
  <text x="664" y="72" font-family="system-ui, sans-serif" font-size="10" font-weight="700" fill="#c084fc" text-anchor="middle">Play Store</text>

  <!-- Rating -->
  <rect x="592" y="96" width="144" height="52" rx="8" fill="#1e293b"/>
  <text x="664" y="116" font-family="system-ui, sans-serif" font-size="22" font-weight="800" fill="white" text-anchor="middle">1K+</text>
  <text x="664" y="131" font-family="system-ui, sans-serif" font-size="8" fill="#94a3b8" text-anchor="middle">Downloads · Google Play</text>
  <text x="664" y="143" font-family="system-ui, sans-serif" font-size="9" fill="#fbbf24" text-anchor="middle">⭐⭐⭐⭐⭐</text>

  <!-- Feature pills -->
  <rect x="592" y="156" width="144" height="28" rx="8" fill="#2d1654"/>
  <text x="664" y="174" font-family="system-ui, sans-serif" font-size="9" fill="#e879f9" text-anchor="middle">🎙 Voice-First Social</text>

  <rect x="592" y="191" width="144" height="28" rx="8" fill="#1a0a3d"/>
  <text x="664" y="209" font-family="system-ui, sans-serif" font-size="9" fill="#a78bfa" text-anchor="middle">🤝 1-on-1 Matching</text>

  <rect x="592" y="226" width="144" height="28" rx="8" fill="#2d1654"/>
  <text x="664" y="244" font-family="system-ui, sans-serif" font-size="9" fill="#e879f9" text-anchor="middle">🛡 Safety Controls</text>

  <rect x="592" y="261" width="144" height="28" rx="8" fill="#1a0a3d"/>
  <text x="664" y="279" font-family="system-ui, sans-serif" font-size="9" fill="#a78bfa" text-anchor="middle">💳 Secure Payments</text>

  <!-- Tech tags -->
  <rect x="592" y="297" width="66" height="22" rx="6" fill="#1e293b"/>
  <text x="625" y="312" font-family="system-ui, sans-serif" font-size="8" fill="#4ade80" text-anchor="middle">React Native</text>
  <rect x="664" y="297" width="52" height="22" rx="6" fill="#1e293b"/>
  <text x="690" y="312" font-family="system-ui, sans-serif" font-size="8" fill="#fb923c" text-anchor="middle">Firebase</text>

  <rect x="592" y="325" width="124" height="22" rx="6" fill="#1e293b"/>
  <text x="654" y="340" font-family="system-ui, sans-serif" font-size="8" fill="#60a5fa" text-anchor="middle">Android · Google Play</text>

  <text x="664" y="386" font-family="system-ui, sans-serif" font-size="10" font-weight="700" fill="#c084fc" text-anchor="middle">1K+ Downloads</text>

  <!-- Title -->
  <text x="400" y="406" font-family="system-ui, sans-serif" font-size="42" font-weight="800" fill="white" text-anchor="middle">BFF</text>
  <text x="400" y="432" font-family="system-ui, sans-serif" font-size="14" fill="#94a3b8" text-anchor="middle">Voice Social App · 1K+ Downloads · Google Play</text>
</svg>
